<mxfile host="65bd71144e">
    <diagram id="cart-flow" name="购物车功能流程">
        <mxGraphModel dx="1200" dy="800" grid="1" gridSize="10" guides="1" tooltips="1" connect="1" arrows="1" fold="1" page="1" pageScale="1" pageWidth="827" pageHeight="1169" math="0" shadow="0">
            <root>
                <mxCell id="0"/>
                <mxCell id="1" parent="0"/>
                
                <!-- 开始节点 -->
                <mxCell id="start" value="开始" style="ellipse;whiteSpace=wrap;html=1;fillColor=#d5e8d4;strokeColor=#82b366;" vertex="1" parent="1">
                    <mxGeometry x="360" y="40" width="100" height="60" as="geometry"/>
                </mxCell>
                
                <!-- 商品详情页 -->
                <mxCell id="productDetail" value="商品详情页" style="rounded=1;whiteSpace=wrap;html=1;fillColor=#dae8fc;strokeColor=#6c8ebf;" vertex="1" parent="1">
                    <mxGeometry x="350" y="140" width="120" height="60" as="geometry"/>
                </mxCell>
                
                <!-- 添加到购物车 -->
                <mxCell id="addToCart" value="点击添加到购物车" style="rounded=1;whiteSpace=wrap;html=1;fillColor=#dae8fc;strokeColor=#6c8ebf;" vertex="1" parent="1">
                    <mxGeometry x="350" y="240" width="120" height="60" as="geometry"/>
                </mxCell>
                
                <!-- 库存检查 -->
                <mxCell id="stockCheck" value="库存是否充足?" style="rhombus;whiteSpace=wrap;html=1;fillColor=#fff2cc;strokeColor=#d6b656;" vertex="1" parent="1">
                    <mxGeometry x="345" y="340" width="130" height="80" as="geometry"/>
                </mxCell>
                
                <!-- 更新购物车 -->
                <mxCell id="updateCart" value="更新购物车" style="rounded=1;whiteSpace=wrap;html=1;fillColor=#dae8fc;strokeColor=#6c8ebf;" vertex="1" parent="1">
                    <mxGeometry x="350" y="460" width="120" height="60" as="geometry"/>
                </mxCell>
                
                <!-- 查看购物车 -->
                <mxCell id="viewCart" value="查看购物车" style="rounded=1;whiteSpace=wrap;html=1;fillColor=#dae8fc;strokeColor=#6c8ebf;" vertex="1" parent="1">
                    <mxGeometry x="350" y="560" width="120" height="60" as="geometry"/>
                </mxCell>
                
                <!-- 购物车操作选择 -->
                <mxCell id="cartOperation" value="选择操作" style="rhombus;whiteSpace=wrap;html=1;fillColor=#fff2cc;strokeColor=#d6b656;" vertex="1" parent="1">
                    <mxGeometry x="345" y="660" width="130" height="80" as="geometry"/>
                </mxCell>
                
                <!-- 修改数量 -->
                <mxCell id="modifyQuantity" value="修改商品数量" style="rounded=1;whiteSpace=wrap;html=1;fillColor=#dae8fc;strokeColor=#6c8ebf;" vertex="1" parent="1">
                    <mxGeometry x="150" y="760" width="120" height="60" as="geometry"/>
                </mxCell>
                
                <!-- 删除商品 -->
                <mxCell id="removeItem" value="删除购物车商品" style="rounded=1;whiteSpace=wrap;html=1;fillColor=#dae8fc;strokeColor=#6c8ebf;" vertex="1" parent="1">
                    <mxGeometry x="350" y="760" width="120" height="60" as="geometry"/>
                </mxCell>
                
                <!-- 结算 -->
                <mxCell id="checkout" value="结算" style="rounded=1;whiteSpace=wrap;html=1;fillColor=#dae8fc;strokeColor=#6c8ebf;" vertex="1" parent="1">
                    <mxGeometry x="550" y="760" width="120" height="60" as="geometry"/>
                </mxCell>
                
                <!-- 结束节点 -->
                <mxCell id="end" value="结束" style="ellipse;whiteSpace=wrap;html=1;fillColor=#f8cecc;strokeColor=#b85450;" vertex="1" parent="1">
                    <mxGeometry x="360" y="860" width="100" height="60" as="geometry"/>
                </mxCell>
                
                <!-- 连接线 -->
                <mxCell id="flow1" value="" style="endArrow=classic;html=1;exitX=0.5;exitY=1;exitDx=0;exitDy=0;entryX=0.5;entryY=0;entryDx=0;entryDy=0;" edge="1" parent="1" source="start" target="productDetail">
                    <mxGeometry width="50" height="50" relative="1" as="geometry"/>
                </mxCell>
                
                <mxCell id="flow2" value="" style="endArrow=classic;html=1;exitX=0.5;exitY=1;exitDx=0;exitDy=0;entryX=0.5;entryY=0;entryDx=0;entryDy=0;" edge="1" parent="1" source="productDetail" target="addToCart">
                    <mxGeometry width="50" height="50" relative="1" as="geometry"/>
                </mxCell>
                
                <mxCell id="flow3" value="" style="endArrow=classic;html=1;exitX=0.5;exitY=1;exitDx=0;exitDy=0;entryX=0.5;entryY=0;entryDx=0;entryDy=0;" edge="1" parent="1" source="addToCart" target="stockCheck">
                    <mxGeometry width="50" height="50" relative="1" as="geometry"/>
                </mxCell>
                
                <mxCell id="flow4" value="是" style="endArrow=classic;html=1;exitX=0.5;exitY=1;exitDx=0;exitDy=0;entryX=0.5;entryY=0;entryDx=0;entryDy=0;" edge="1" parent="1" source="stockCheck" target="updateCart">
                    <mxGeometry relative="1" as="geometry"/>
                </mxCell>
                
                <mxCell id="flow5" value="否" style="endArrow=classic;html=1;exitX=1;exitY=0.5;exitDx=0;exitDy=0;entryX=1;entryY=0.5;entryDx=0;entryDy=0;" edge="1" parent="1" source="stockCheck" target="productDetail">
                    <mxGeometry relative="1" as="geometry">
                        <Array as="points">
                            <mxPoint x="530" y="380"/>
                            <mxPoint x="530" y="170"/>
                        </Array>
                    </mxGeometry>
                </mxCell>
                
                <mxCell id="flow6" value="" style="endArrow=classic;html=1;exitX=0.5;exitY=1;exitDx=0;exitDy=0;entryX=0.5;entryY=0;entryDx=0;entryDy=0;" edge="1" parent="1" source="updateCart" target="viewCart">
                    <mxGeometry width="50" height="50" relative="1" as="geometry"/>
                </mxCell>
                
                <mxCell id="flow7" value="" style="endArrow=classic;html=1;exitX=0.5;exitY=1;exitDx=0;exitDy=0;entryX=0.5;entryY=0;entryDx=0;entryDy=0;" edge="1" parent="1" source="viewCart" target="cartOperation">
                    <mxGeometry width="50" height="50" relative="1" as="geometry"/>
                </mxCell>
                
                <mxCell id="flow8" value="修改数量" style="endArrow=classic;html=1;exitX=0;exitY=0.5;exitDx=0;exitDy=0;entryX=0.5;entryY=0;entryDx=0;entryDy=0;" edge="1" parent="1" source="cartOperation" target="modifyQuantity">
                    <mxGeometry relative="1" as="geometry">
                        <Array as="points">
                            <mxPoint x="210" y="700"/>
                        </Array>
                    </mxGeometry>
                </mxCell>
                
                <mxCell id="flow9" value="删除" style="endArrow=classic;html=1;exitX=0.5;exitY=1;exitDx=0;exitDy=0;entryX=0.5;entryY=0;entryDx=0;entryDy=0;" edge="1" parent="1" source="cartOperation" target="removeItem">
                    <mxGeometry relative="1" as="geometry"/>
                </mxCell>
                
                <mxCell id="flow10" value="结算" style="endArrow=classic;html=1;exitX=1;exitY=0.5;exitDx=0;exitDy=0;entryX=0.5;entryY=0;entryDx=0;entryDy=0;" edge="1" parent="1" source="cartOperation" target="checkout">
                    <mxGeometry relative="1" as="geometry">
                        <Array as="points">
                            <mxPoint x="610" y="700"/>
                        </Array>
                    </mxGeometry>
                </mxCell>
                
                <mxCell id="flow11" value="" style="endArrow=classic;html=1;exitX=0.5;exitY=1;exitDx=0;exitDy=0;entryX=0;entryY=0.5;entryDx=0;entryDy=0;" edge="1" parent="1" source="modifyQuantity" target="end">
                    <mxGeometry width="50" height="50" relative="1" as="geometry">
                        <Array as="points">
                            <mxPoint x="210" y="840"/>
                            <mxPoint x="210" y="890"/>
                        </Array>
                    </mxGeometry>
                </mxCell>
                
                <mxCell id="flow12" value="" style="endArrow=classic;html=1;exitX=0.5;exitY=1;exitDx=0;exitDy=0;entryX=0.5;entryY=0;entryDx=0;entryDy=0;" edge="1" parent="1" source="removeItem" target="end">
                    <mxGeometry width="50" height="50" relative="1" as="geometry"/>
                </mxCell>
                
                <mxCell id="flow13" value="" style="endArrow=classic;html=1;exitX=0.5;exitY=1;exitDx=0;exitDy=0;entryX=1;entryY=0.5;entryDx=0;entryDy=0;" edge="1" parent="1" source="checkout" target="end">
                    <mxGeometry width="50" height="50" relative="1" as="geometry">
                        <Array as="points">
                            <mxPoint x="610" y="840"/>
                            <mxPoint x="610" y="890"/>
                        </Array>
                    </mxGeometry>
                </mxCell>
                
                <mxCell id="returnToView" value="" style="endArrow=classic;html=1;exitX=0;exitY=0.5;exitDx=0;exitDy=0;entryX=0;entryY=0.5;entryDx=0;entryDy=0;" edge="1" parent="1" source="modifyQuantity" target="viewCart">
                    <mxGeometry width="50" height="50" relative="1" as="geometry">
                        <Array as="points">
                            <mxPoint x="100" y="790"/>
                            <mxPoint x="100" y="590"/>
                        </Array>
                    </mxGeometry>
                </mxCell>
                
                <mxCell id="returnToView2" value="" style="endArrow=classic;html=1;exitX=1;exitY=0.5;exitDx=0;exitDy=0;entryX=1;entryY=0.5;entryDx=0;entryDy=0;" edge="1" parent="1" source="removeItem" target="viewCart">
                    <mxGeometry width="50" height="50" relative="1" as="geometry">
                        <Array as="points">
                            <mxPoint x="500" y="790"/>
                            <mxPoint x="500" y="590"/>
                        </Array>
                    </mxGeometry>
                </mxCell>
            </root>
        </mxGraphModel>
    </diagram>
</mxfile>